<?xml version="1.0" standalone="no"?>
<!DOCTYPE svg PUBLIC "-//W3C//DTD SVG 1.1//EN" "http://www.w3.org/Graphics/SVG/1.1/DTD/svg11.dtd" >
<svg xmlns="http://www.w3.org/2000/svg" xmlns:xlink="http://www.w3.org/1999/xlink" version="1.1">
<metadata>
Created by FontForge 20150102 at Wed Jan 28 09:49:02 2015
 By uniteet7
Copyright (c) 2012 by cbabb. All rights reserved.
</metadata>
<defs>
<font id="couturebldit" horiz-adv-x="741" >
  <font-face 
    font-family="couturebldit"
    font-weight="700"
    font-stretch="normal"
    units-per-em="1000"
    panose-1="2 11 8 4 2 2 2 2 2 4"
    ascent="714"
    descent="-286"
    x-height="714"
    cap-height="714"
    bbox="-31 -102 1363 816"
    underline-thickness="50"
    underline-position="-50"
    unicode-range="U+0020-2122"
  />
<missing-glyph horiz-adv-x="278" 
 />
    <glyph glyph-name=".notdef" horiz-adv-x="278" 
 />
    <glyph glyph-name=".null" horiz-adv-x="0" 
 />
    <glyph glyph-name="nonmarkingreturn" horiz-adv-x="333" 
 />
    <glyph glyph-name="space" unicode=" " horiz-adv-x="303" 
 />
    <glyph glyph-name="numbersign" unicode="#" horiz-adv-x="1013" 
d="M528 -1l-301 523l-74 -523h-124l101 717h180l256 -446l63 446h133l-101 -717h-133zM1021 594q-8 -51 -47 -85t-89 -34t-80.5 34.5t-22.5 84.5q6 50 46.5 85t90.5 35q49 0 78.5 -35t23.5 -85zM912 665q-29 0 -53 -21t-28 -50q-4 -28 14 -50t47 -22t52 21.5t27 50.5
q4 30 -13 50.5t-46 20.5z" />
    <glyph glyph-name="dollar" unicode="$" horiz-adv-x="1377" 
d="M1221 512q-31 70 -96.5 112.5t-151.5 42.5q-43 0 -98 -15q92 -131 69 -295q-24 -168 -152 -295q52 -15 94 -15q84 0 161 41t125 110q24 -13 57.5 -32t66.5 -37q-77 -106 -190.5 -168.5t-240.5 -62.5q-115 0 -215 59q-113 -59 -230 -59q-126 0 -223 62.5t-142 168.5
q27 14 47 24t44.5 21.5t49.5 23.5q34 -70 98 -110.5t147 -40.5q44 0 97 15q-89 127 -65 295q24 169 148 295q-48 15 -93 15q-86 0 -162 -42t-128 -113q-54 26 -122 68q76 107 191 171.5t242 64.5q118 0 214 -59q116 59 231 59q126 0 225 -65t144 -171q-86 -45 -142 -68z
M737 571q-98 -90 -114 -214q-18 -127 53 -215q102 93 119 215q16 122 -58 214z" />
    <glyph glyph-name="zero" unicode="0" horiz-adv-x="547" 
d="M56 346q26 186 99 275t198 89q126 0 173.5 -89t21.5 -275q-26 -187 -99 -276t-198 -89t-173 89.5t-22 275.5zM200 346q-21 -137 -6.5 -195t72.5 -58q59 0 88 55.5t50 197.5q21 138 6.5 195t-73.5 57t-87.5 -55t-49.5 -197z" />
    <glyph glyph-name="one" unicode="1" horiz-adv-x="325" 
d="M97 655l254 52l-99 -707h-140l79 565h-107z" />
    <glyph glyph-name="two" unicode="2" horiz-adv-x="539" 
d="M3 0l19 138q32 40 183 144q55 36 76.5 51t53 39t42.5 38.5t22 35.5t15 45q4 41 -16.5 71t-67.5 30q-29 0 -50.5 -9.5t-33 -21.5t-20 -33.5t-11.5 -34t-6 -34.5h-136q9 66 34.5 115t55 74t67 40t62 18.5t48.5 3.5q106 0 166.5 -60t46.5 -164q-7 -45 -24 -81t-45.5 -64.5
t-52 -46t-59.5 -39.5q-16 -10 -40.5 -26t-36 -23.5t-28.5 -19t-25.5 -18.5t-19 -15t-16.5 -15t-11 -14h308l-17 -124h-483z" />
    <glyph glyph-name="three" unicode="3" horiz-adv-x="548" 
d="M232 311l14 100h22q22 0 38 2.5t38.5 10.5t37 29.5t19.5 53.5q3 10 0 25.5t-8.5 30t-23.5 25t-45 10.5q-33 0 -56.5 -13.5t-34.5 -36t-15 -37t-6 -29.5h-130q15 104 83 166t184 62q30 0 58.5 -6t56 -21t46.5 -37t28 -56.5t3 -77.5q-8 -50 -37 -84.5t-67 -50.5v-2
q13 -4 26.5 -13t30.5 -26.5t25 -50.5t2 -75q-14 -100 -90.5 -164.5t-183.5 -64.5q-27 0 -52 3t-61 17t-59.5 37.5t-37 70t-4.5 109.5h137l-1 -1q-16 -124 86 -124q45 0 79 30.5t43 86.5q4 28 -4.5 47.5t-21.5 30t-36.5 16t-40.5 6.5t-42 1z" />
    <glyph glyph-name="four" unicode="4" horiz-adv-x="557" 
d="M236 603l-46 -332h131l61 439h139l-60 -432h80l-17 -121h-80l-22 -157h-140l22 157h-280l17 121l45 325h150z" />
    <glyph glyph-name="five" unicode="5" horiz-adv-x="545" 
d="M238 580l-21 -154q47 39 125 39q38 0 72.5 -13.5t63 -39.5t42 -72t5.5 -104q-4 -32 -15 -64t-34.5 -67.5t-55 -62t-80.5 -44t-109 -17.5q-91 0 -150.5 54t-51.5 155h140q-2 -97 86 -97q50 0 82.5 37t41.5 96q8 52 -13.5 89.5t-72.5 37.5q-66 0 -101 -51l-124 6l55 390
h439l-17 -118h-307z" />
    <glyph glyph-name="six" unicode="6" horiz-adv-x="545" 
d="M556 530h-139q1 31 -17 49.5t-56 18.5q-33 0 -58.5 -17t-42 -48t-26 -61t-17.5 -70l1 -2q52 59 142 59q103 0 151 -66t35 -153q-16 -116 -90.5 -187.5t-177.5 -71.5q-261 0 -207 357q5 35 10.5 63.5t17.5 69t27 71.5t39.5 64t54.5 54.5t73 35.5t94 14q31 0 73.5 -11.5
t65.5 -34.5q25 -29 35 -55.5t12 -78.5zM387 228q9 61 -18.5 90t-66.5 29q-45 0 -80 -30t-44 -92q-8 -58 17 -95t75 -37q43 0 75.5 33.5t41.5 101.5z" />
    <glyph glyph-name="seven" unicode="7" horiz-adv-x="548" 
d="M601 698l-15 -108q-7 -12 -41 -66t-63 -102.5t-70 -117.5t-84.5 -147.5t-83.5 -156.5h-166q86 155 207.5 360t126.5 214h-331l17 124h503z" />
    <glyph glyph-name="eight" unicode="8" horiz-adv-x="554" 
d="M314 422q41 0 67.5 24.5t31.5 63.5q6 41 -14.5 64.5t-55.5 23.5q-47 0 -75 -24t-33 -64q-4 -35 16 -61.5t63 -26.5zM529 211q-5 -37 -23 -74.5t-50 -74t-85.5 -59t-119.5 -22.5t-113 19.5t-69.5 52.5t-30.5 69t-3 75q3 20 5 28.5t11 34.5t21.5 43t37.5 38.5t58 35.5
q-79 42 -66 139q12 88 82.5 141t165.5 53q106 0 157.5 -53t41.5 -132q-13 -98 -102 -143q50 -28 70.5 -66.5t11.5 -104.5zM384 205q7 44 -14 77.5t-74 33.5q-42 0 -75 -28t-41 -82q-7 -52 16 -82.5t71 -30.5q50 0 81.5 35t35.5 77z" />
    <glyph glyph-name="nine" unicode="9" horiz-adv-x="566" 
d="M212 475q-19 -130 87 -130q41 0 76 30.5t43 88.5q9 62 -13 96.5t-75 34.5q-37 0 -73 -26.5t-45 -93.5zM42 164h139v-1q1 -70 72 -70q49 0 89.5 47.5t55.5 150.5l-2 2q-49 -60 -143 -60q-98 0 -147.5 64.5t-36.5 157.5q17 125 93 190t185 65q40 0 72 -10t54 -24t38 -39
t25 -45.5t13 -53.5t5.5 -52.5t-0.5 -54t-3.5 -46.5t-4.5 -40q-14 -99 -46 -172.5t-75.5 -114t-90 -59t-97.5 -18.5q-91 0 -145 49.5t-50 133.5z" />
    <glyph glyph-name="A" unicode="A" horiz-adv-x="807" 
d="M118 0h-142l424 713h158l218 -713h-152l-47 158h-361zM463 579h-1l-159 -276h237z" />
    <glyph glyph-name="B" unicode="B" horiz-adv-x="704" 
d="M245 318l-27 -196h168q115 0 129 94q15 102 -99 102h-171zM43 0l101 714h336q109 0 163 -41t40 -136q-16 -102 -118 -149q62 -18 88.5 -65.5t17.5 -115.5q-15 -102 -95.5 -154.5t-186.5 -52.5h-346zM284 592l-24 -167h159q44 0 73 21t35 64q8 46 -19.5 64t-76.5 18h-147z
" />
    <glyph glyph-name="C" unicode="C" 
d="M714 191q-59 -88 -151 -140.5t-196 -52.5q-150 0 -241.5 106t-69.5 256q20 149 142 255.5t271 106.5q101 0 176 -50.5t112 -134.5q-89 -43 -144 -68q-19 46 -63.5 74.5t-101.5 28.5q-88 0 -159 -62.5t-83 -149.5q-12 -88 41 -150t141 -62q59 0 112.5 29.5t89.5 81.5
q97 -55 124 -68z" />
    <glyph glyph-name="D" unicode="D" 
d="M43 0l101 714h308q144 0 221.5 -91t52.5 -262q-23 -162 -120 -261.5t-255 -99.5h-308zM282 582l-63 -450h140q76 0 134.5 52t73.5 162q17 114 -22.5 175t-150.5 61h-112z" />
    <glyph glyph-name="E" unicode="E" horiz-adv-x="648" 
d="M543 285h-326l-21 -152h403l-19 -132h-555l101 716h521l-19 -132h-369l-22 -161h326z" />
    <glyph glyph-name="F" unicode="F" horiz-adv-x="593" 
d="M217 285l-21 -152l-19 -133h-152l101 717h521l-18 -132h-369l-23 -161h326l-20 -139h-326z" />
    <glyph glyph-name="G" unicode="G" horiz-adv-x="759" 
d="M773 381q-3 -21 -9.5 -52t-23.5 -79t-36 -70q-58 -87 -153 -139.5t-198 -52.5q-152 0 -245.5 108.5t-71.5 261.5q20 152 144 260.5t277 108.5q102 0 180.5 -51.5t115.5 -136.5q-28 -13 -67 -32t-81 -38q-21 49 -66 77t-104 28q-90 0 -162 -63t-84 -153q-14 -90 40.5 -153
t144.5 -63q61 0 119 29t86 79h-16q-15 0 -70 -0.5t-76 -0.5l-27 1l18 132q48 0 174.5 -0.5t190.5 -0.5z" />
    <glyph glyph-name="H" unicode="H" 
d="M513 2l43 304h-331l-43 -304h-153l101 716h153l-36 -259h331l36 257h154l-101 -714h-154z" />
    <glyph glyph-name="I" unicode="I" horiz-adv-x="295" 
d="M43 0l101 714h157l-101 -714h-157z" />
    <glyph glyph-name="J" unicode="J" horiz-adv-x="556" 
d="M562 714l-68 -489q-6 -34 -14 -61t-27.5 -63t-47 -60t-75 -41t-108.5 -17q-136 0 -187 94q-13 22 -18 53t-3 50l149 24q-7 -44 8.5 -66.5t66.5 -22.5q24 0 41.5 8t27 17.5t16.5 29t9.5 30t5.5 32.5l67 482h157z" />
    <glyph glyph-name="K" unicode="K" horiz-adv-x="722" 
d="M426 310l246 -310h-216l-157 200l-112 -129l-10 -71h-160l101 715h160l-57 -405l336 405h195z" />
    <glyph glyph-name="L" unicode="L" horiz-adv-x="593" 
d="M549 5h-520l100 712h154l-82 -580h366z" />
    <glyph glyph-name="M" unicode="M" horiz-adv-x="907" 
d="M60 0l101 714h204l120 -315l207 315h207l-101 -714h-147l71 505h-2l-204 -325h-121l-113 320h-2l-71 -500h-149z" />
    <glyph glyph-name="N" unicode="N" 
d="M528 -1l-292 494l-70 -494h-137l101 717h180l256 -446l63 446h133l-101 -717h-133z" />
    <glyph glyph-name="O" unicode="O" horiz-adv-x="778" 
d="M782 360q-22 -153 -146 -261t-276 -108q-153 0 -246 108t-71 261q22 154 145 262t276 108t246.5 -108.5t71.5 -261.5zM443 579q-89 0 -163 -65t-86 -154q-14 -89 42 -153.5t145 -64.5t161 64t86 154q12 90 -42 154.5t-143 64.5z" />
    <glyph glyph-name="P" unicode="P" horiz-adv-x="667" 
d="M43 0l101 714h322q64 0 110.5 -19t70 -52t32 -73t2.5 -85q-15 -97 -84.5 -163t-195.5 -66h-165l-36 -256h-157zM284 592l-30 -214h122q64 0 104 22.5t49 84.5q8 62 -26 84.5t-97 22.5h-122z" />
    <glyph glyph-name="Q" unicode="Q" horiz-adv-x="778" 
d="M745 164l-20 -149h-264q-50 -15 -103 -15q-98 0 -175 48.5t-114 132.5t-23 182q22 152 142.5 258.5t271.5 106.5q152 0 244 -106.5t70 -258.5q-9 -64 -34 -110t-72 -89h77zM439 576q-88 0 -160 -62t-84 -151q-12 -88 42 -149.5t142 -61.5q89 0 160 61.5t83 149.5
q12 89 -41 151t-142 62z" />
    <glyph glyph-name="R" unicode="R" horiz-adv-x="722" 
d="M482 264h6l162 -265h-192l-144 257h-77l-36 -257h-158l101 715h322q125 0 177.5 -66t39.5 -163q-11 -78 -62.5 -140.5t-138.5 -80.5zM407 592h-122l-31 -215h122q66 0 105 22.5t48 85.5q9 64 -24 85.5t-98 21.5z" />
    <glyph glyph-name="S" unicode="S" horiz-adv-x="649" 
d="M32 237l148 -25q3 -107 143 -107q33 0 62.5 6.5t57 27.5t32.5 55q4 31 -16.5 51.5t-56 32.5t-79.5 22t-87.5 25t-78 36.5t-52.5 60.5t-10 93q15 103 102.5 159.5t194.5 56.5q58 0 106 -13t85.5 -39.5t54.5 -72t8 -105.5l-149 22q-3 29 -15.5 48t-34.5 26.5t-38.5 9.5
t-40.5 2q-43 0 -78 -20t-41 -61q-6 -39 28 -56.5t169 -51.5q1 0 4 -1q26 -6 43.5 -11.5t49.5 -22t50.5 -37t30.5 -56.5t5 -80q-15 -102 -101 -165.5t-228 -63.5q-61 0 -113 15.5t-90.5 45.5t-56.5 79.5t-8 113.5z" />
    <glyph glyph-name="T" unicode="T" horiz-adv-x="653" 
d="M224 0l82 582h-227l19 131h609l-19 -132h-225l-82 -581h-157z" />
    <glyph glyph-name="U" unicode="U" 
d="M750 714l-62 -444q-20 -142 -109.5 -214.5t-235.5 -72.5q-147 0 -216 71.5t-48 215.5l62 444h157l-62 -444q-4 -40 -1 -74.5t34.5 -57.5t91.5 -23q82 0 120 36.5t50 118.5l62 444h157z" />
    <glyph glyph-name="V" unicode="V" horiz-adv-x="630" 
d="M713 714l-338 -714h-177l-131 714h162l88 -502h2l232 502h162z" />
    <glyph glyph-name="W" unicode="W" horiz-adv-x="944" 
d="M1016 714l-293 -714h-156l-52 486h-2l-188 -486h-159l-88 714h157l32 -488l14 2l193 486h147l53 -492l13 -1l175 493h154z" />
    <glyph glyph-name="X" unicode="X" horiz-adv-x="667" 
d="M-31 0l302 374l-182 340h182l108 -228l177 228h172l-277 -341l196 -373h-187l-115 245l-200 -245h-176z" />
    <glyph glyph-name="Y" unicode="Y" horiz-adv-x="667" 
d="M228 0l39 278l-201 436h177l127 -282l206 282h175l-327 -440l-39 -274h-157z" />
    <glyph glyph-name="Z" unicode="Z" horiz-adv-x="648" 
d="M-2 0l17 124l447 458h-353l19 132h562l-18 -124l-447 -458h393l-19 -132h-601z" />
    <glyph glyph-name="a" unicode="a" horiz-adv-x="807" 
d="M118 0h-142l424 713h158l218 -713h-152l-47 158h-361zM463 579h-1l-159 -276h237z" />
    <glyph glyph-name="b" unicode="b" horiz-adv-x="695" 
d="M229 318l-27 -196h168q115 0 129 94q15 102 -99 102h-171zM27 0l101 714h336q109 0 163 -41t40 -136q-16 -102 -118 -149q62 -18 88.5 -65.5t17.5 -115.5q-15 -102 -95.5 -154.5t-186.5 -52.5h-346zM268 592l-24 -167h159q44 0 73 21t35 64q8 46 -19.5 64t-76.5 18h-147z
" />
    <glyph glyph-name="c" unicode="c" 
d="M714 191q-59 -88 -151 -140.5t-196 -52.5q-150 0 -241.5 106t-69.5 256q20 149 142 255.5t271 106.5q101 0 176 -50.5t112 -134.5q-89 -43 -144 -68q-19 46 -63.5 74.5t-101.5 28.5q-88 0 -159 -62.5t-83 -149.5q-12 -88 41 -150t141 -62q59 0 112.5 29.5t89.5 81.5
q97 -55 124 -68z" />
    <glyph glyph-name="d" unicode="d" horiz-adv-x="747" 
d="M43 0l101 714h308q144 0 221.5 -91t52.5 -262q-23 -162 -120 -261.5t-255 -99.5h-308zM282 582l-63 -450h140q76 0 134.5 52t73.5 162q17 114 -22.5 175t-150.5 61h-112z" />
    <glyph glyph-name="e" unicode="e" horiz-adv-x="650" 
d="M217 285l-21 -152h403l-19 -132h-555l101 716h521l-19 -132h-369l-22 -161h326l-20 -139h-326z" />
    <glyph glyph-name="f" unicode="f" horiz-adv-x="613" 
d="M217 285l-21 -152l-19 -133h-152l101 717h521l-18 -132h-369l-23 -161h326l-20 -139h-326z" />
    <glyph glyph-name="g" unicode="g" horiz-adv-x="759" 
d="M773 381q-3 -21 -9.5 -52t-23.5 -79t-36 -70q-58 -87 -153 -139.5t-198 -52.5q-152 0 -245.5 108.5t-71.5 261.5q20 152 144 260.5t277 108.5q102 0 180.5 -51.5t115.5 -136.5q-28 -13 -67 -32t-81 -38q-21 49 -66 77t-104 28q-90 0 -162 -63t-84 -153q-14 -90 40.5 -153
t144.5 -63q61 0 119 29t86 79h-16q-15 0 -70 -0.5t-76 -0.5l-27 1l18 132q48 0 174.5 -0.5t190.5 -0.5z" />
    <glyph glyph-name="h" unicode="h" horiz-adv-x="749" 
d="M513 2l43 304h-331l-43 -304h-153l101 716h153l-36 -259h331l36 257h154l-101 -714h-154z" />
    <glyph glyph-name="i" unicode="i" horiz-adv-x="288" 
d="M43 0l101 714h157l-101 -714h-157z" />
    <glyph glyph-name="j" unicode="j" horiz-adv-x="556" 
d="M562 714l-68 -489q-6 -34 -14 -61t-27.5 -63t-47 -60t-75 -41t-108.5 -17q-136 0 -187 94q-13 22 -18 53t-3 50l149 24q-7 -44 8.5 -66.5t66.5 -22.5q24 0 41.5 8t27 17.5t16.5 29t9.5 30t5.5 32.5l67 482h157z" />
    <glyph glyph-name="k" unicode="k" horiz-adv-x="722" 
d="M426 310l246 -310h-216l-157 200l-112 -129l-10 -71h-160l101 715h160l-57 -405l336 405h195z" />
    <glyph glyph-name="l" unicode="l" horiz-adv-x="619" 
d="M549 5h-520l100 712h154l-82 -580h366z" />
    <glyph glyph-name="m" unicode="m" horiz-adv-x="907" 
d="M60 0l101 714h204l120 -315l207 315h207l-101 -714h-147l71 505h-2l-204 -325h-121l-113 320h-2l-71 -500h-149z" />
    <glyph glyph-name="n" unicode="n" 
d="M528 -1l-292 494l-70 -494h-137l101 717h180l256 -446l63 446h133l-101 -717h-133z" />
    <glyph glyph-name="o" unicode="o" horiz-adv-x="779" 
d="M782 360q-22 -153 -146 -261t-276 -108q-153 0 -246 108t-71 261q22 154 145 262t276 108t246.5 -108.5t71.5 -261.5zM443 579q-89 0 -163 -65t-86 -154q-14 -89 42 -153.5t145 -64.5t161 64t86 154q12 90 -42 154.5t-143 64.5z" />
    <glyph glyph-name="p" unicode="p" horiz-adv-x="667" 
d="M43 0l101 714h322q64 0 110.5 -19t70 -52t32 -73t2.5 -85q-15 -97 -84.5 -163t-195.5 -66h-165l-36 -256h-157zM284 592l-30 -214h122q64 0 104 22.5t49 84.5q8 62 -26 84.5t-97 22.5h-122z" />
    <glyph glyph-name="q" unicode="q" horiz-adv-x="778" 
d="M745 164l-20 -149h-264q-50 -15 -103 -15q-98 0 -175 48.5t-114 132.5t-23 182q22 152 142.5 258.5t271.5 106.5q152 0 244 -106.5t70 -258.5q-9 -64 -34 -110t-72 -89h77zM439 576q-88 0 -160 -62t-84 -151q-12 -88 42 -149.5t142 -61.5q89 0 160 61.5t83 149.5
q12 89 -41 151t-142 62z" />
    <glyph glyph-name="r" unicode="r" horiz-adv-x="722" 
d="M482 264h6l162 -265h-192l-144 257h-77l-36 -257h-158l101 715h322q125 0 177.5 -66t39.5 -163q-11 -78 -62.5 -140.5t-138.5 -80.5zM407 592h-122l-31 -215h122q66 0 105 22.5t48 85.5q9 64 -24 85.5t-98 21.5z" />
    <glyph glyph-name="s" unicode="s" horiz-adv-x="649" 
d="M32 237l148 -25q3 -107 143 -107q33 0 62.5 6.5t57 27.5t32.5 55q4 31 -16.5 51.5t-56 32.5t-79.5 22t-87.5 25t-78 36.5t-52.5 60.5t-10 93q15 103 102.5 159.5t194.5 56.5q58 0 106 -13t85.5 -39.5t54.5 -72t8 -105.5l-149 22q-3 29 -15.5 48t-34.5 26.5t-38.5 9.5
t-40.5 2q-43 0 -78 -20t-41 -61q-6 -39 28 -56.5t169 -51.5q1 0 4 -1q26 -6 43.5 -11.5t49.5 -22t50.5 -37t30.5 -56.5t5 -80q-15 -102 -101 -165.5t-228 -63.5q-61 0 -113 15.5t-90.5 45.5t-56.5 79.5t-8 113.5z" />
    <glyph glyph-name="t" unicode="t" horiz-adv-x="653" 
d="M224 0l82 582h-227l19 131h609l-19 -132h-225l-82 -581h-157z" />
    <glyph glyph-name="u" unicode="u" horiz-adv-x="739" 
d="M750 714l-62 -444q-20 -142 -109.5 -214.5t-235.5 -72.5q-147 0 -216 71.5t-48 215.5l62 444h157l-62 -444q-4 -40 -1 -74.5t34.5 -57.5t91.5 -23q82 0 120 36.5t50 118.5l62 444h157z" />
    <glyph glyph-name="v" unicode="v" horiz-adv-x="629" 
d="M713 714l-338 -714h-177l-131 714h162l88 -502h2l232 502h162z" />
    <glyph glyph-name="w" unicode="w" horiz-adv-x="941" 
d="M1016 714l-293 -714h-156l-52 486h-2l-188 -486h-159l-88 714h157l32 -488l14 2l193 486h147l53 -492l13 -1l175 493h154z" />
    <glyph glyph-name="x" unicode="x" horiz-adv-x="669" 
d="M-31 0l302 374l-182 340h182l108 -228l177 228h172l-277 -341l196 -373h-187l-115 245l-200 -245h-176z" />
    <glyph glyph-name="y" unicode="y" horiz-adv-x="669" 
d="M228 0l39 278l-201 436h177l127 -282l206 282h175l-327 -440l-39 -274h-157z" />
    <glyph glyph-name="z" unicode="z" horiz-adv-x="648" 
d="M-2 0l17 124l447 458h-353l19 132h562l-18 -124l-447 -458h393l-19 -132h-601z" />
    <glyph glyph-name="copyright" unicode="&#xa9;" horiz-adv-x="800" 
d="M562 328q44 -27 84 -48q-39 -62 -103.5 -99t-138.5 -37q-102 0 -165 74.5t-49 179.5q16 105 100 179.5t185 74.5q72 0 126.5 -35t78.5 -96q-15 -7 -44.5 -20t-58.5 -28q-34 74 -117 74q-59 0 -107 -43.5t-58 -105.5q-8 -62 28.5 -105.5t95.5 -43.5q85 0 143 79zM382 79
q132 0 239 93.5t125 225.5q19 130 -62.5 222.5t-212.5 92.5q-132 0 -236 -91.5t-124 -223.5q-18 -132 61 -225.5t210 -93.5zM482 796q164 0 265 -117t77 -281q-22 -164 -155.5 -281t-297.5 -117q-108 0 -192 53.5t-124.5 145t-26.5 199.5q24 164 157 281t297 117z" />
    <glyph glyph-name="registered" unicode="&#xae;" horiz-adv-x="800" 
d="M343 409h78q42 0 67.5 14.5t30.5 55.5q6 40 -15 53.5t-64 13.5h-78zM488 338h4l94 -169h-113l-91 163h-50l-23 -163h-100l64 455h206q79 0 112.5 -42.5t24.5 -102.5q-7 -51 -39.5 -89t-88.5 -52zM386 82q130 0 235 92t123 222q19 131 -59.5 223t-209.5 92
q-132 0 -236 -91.5t-124 -223.5q-18 -130 61 -222t210 -92zM486 790q162 0 261.5 -115.5t75.5 -278.5q-22 -163 -153.5 -278t-294.5 -115t-262 115t-77 278q24 164 155.5 279t294.5 115z" />
    <glyph glyph-name="trademark" unicode="&#x2122;" horiz-adv-x="1000" 
d="M462 714l-11 -80h-117l-47 -332h-102l47 332h-117l11 80h336zM457 301l58 413h118l54 -286l135 286h120l-58 -413h-78l41 293l-143 -293h-70l-61 289l-41 -289h-75z" />
    </font>
</defs>
</svg>
